# xmcd CD database file
#
# Track frame offsets:
#	150
#	18547
#	36087
#	52560
#	69867
#	93645
#	111547
#	136067
#	153082
#	174000
#
# Disc length: 2543 seconds
#
# Revision: 0
# Processed by: cddbd v1.5PL3 Copyright (c) Steve Scherf et al.
# Submitted via: CDex 1.51
#
DISCID=6f09ed0a
DTITLE=Andre Previn - Andre Previn Plays Songs by Vernon Duke
DYEAR=1958
DGENRE=Jazz
TTITLE0=Cabin in the Sky
TTITLE1=Autumn in New York
TTITLE2=The Love I Long For
TTITLE3=Ages Ago
TTITLE4=Taking a Chance on Love
TTITLE5=What Is There To Say?
TTITLE6=I Can't Get Started
TTITLE7=I Like The Likes of You
TTITLE8=Round About
TTITLE9=April in Paris
EXTD=YEAR: 1958
EXTT0=
EXTT1=
EXTT2=
EXTT3=
EXTT4=
EXTT5=
EXTT6=
EXTT7=
EXTT8=
EXTT9=
PLAYORDER=
